<?xml version="1.0" encoding="UTF-8"?>
<svg xmlns="http://www.w3.org/2000/svg" xmlns:xlink="http://www.w3.org/1999/xlink" width="px" height="500px" viewBox="0 0 500 500" version="1.1">
<g id="surface1">
<path style=" stroke:none;fill-rule:nonzero;fill:rgb(0.392157%,70.19608%,92.941177%);fill-opacity:1;" d="M 220.019531 289.558594 C 174.683594 275.859375 141.683594 233.8125 141.683594 184.054688 C 141.683594 175.070312 142.765625 166.335938 144.8125 157.988281 L 216.378906 167.164062 C 216.378906 167.164062 243.875 168.371094 242.863281 217 C 241.863281 264.207031 220.019531 289.558594 220.019531 289.558594 "/>
<path style=" stroke:none;fill-rule:nonzero;fill:rgb(0.392157%,70.19608%,92.941177%);fill-opacity:1;" d="M 284 289.558594 C 329.332031 275.859375 362.347656 233.8125 362.347656 184.054688 C 362.347656 175.070312 361.273438 166.335938 359.238281 157.988281 L 287.636719 167.164062 C 287.636719 167.164062 260.140625 168.371094 261.179688 217 C 262.144531 264.207031 284 289.558594 284 289.558594 "/>
<path style=" stroke:none;fill-rule:nonzero;fill:rgb(0.392157%,70.19608%,92.941177%);fill-opacity:1;" d="M 252.019531 105.171875 C 261.214844 105.171875 268.71875 112.640625 268.71875 121.871094 C 268.71875 129.023438 263.773438 134.382812 257.777344 137.558594 C 257.082031 137.953125 256.371094 138.277344 256.523438 139.417969 C 256.6875 140.589844 260.09375 141.230469 261.5625 141.578125 L 357.839844 152.742188 C 344.324219 107.140625 302.078125 73.871094 252.078125 73.871094 L 251.941406 73.871094 C 201.925781 73.871094 159.695312 107.140625 146.199219 152.742188 L 242.445312 141.578125 C 243.910156 141.230469 247.339844 140.589844 247.496094 139.417969 C 247.632812 138.277344 246.945312 137.953125 246.226562 137.558594 C 240.230469 134.382812 235.308594 129.023438 235.308594 121.871094 C 235.308594 112.640625 242.792969 105.171875 252.019531 105.171875 "/>
<path style=" stroke:none;fill-rule:nonzero;fill:rgb(0.392157%,70.19608%,92.941177%);fill-opacity:1;" d="M 295.984375 367.535156 L 302.5 363.464844 C 302.5 363.464844 271.546875 321.570312 202.34375 321.570312 C 166.910156 321.570312 148.59375 335.800781 123.761719 335.800781 C 123.761719 335.800781 113.570312 337.046875 103.820312 330.929688 C 103.820312 330.929688 115.617188 348.011719 158.371094 348.011719 C 189.707031 348.011719 212.09375 329.707031 234.089844 329.707031 C 264.238281 329.707031 286.625 356.570312 295.984375 367.535156 "/>
<path style=" stroke:none;fill-rule:nonzero;fill:rgb(0.392157%,70.19608%,92.941177%);fill-opacity:1;" d="M 199.878906 367.535156 L 193.371094 363.464844 C 193.371094 363.464844 224.3125 321.570312 293.550781 321.570312 C 328.960938 321.570312 347.277344 335.800781 372.117188 335.800781 C 372.117188 335.800781 382.3125 337.046875 392.050781 330.929688 C 392.050781 330.929688 380.265625 348.011719 337.515625 348.011719 C 306.152344 348.011719 283.765625 329.707031 261.773438 329.707031 C 231.679688 329.707031 209.242188 356.570312 199.878906 367.535156 "/>
<path style=" stroke:none;fill-rule:nonzero;fill:rgb(0.392157%,70.19608%,92.941177%);fill-opacity:1;" d="M 166.910156 317.917969 C 165.710938 321.160156 152.460938 317.292969 143.523438 319.941406 C 133.527344 322.894531 80.605469 329.304688 57.398438 274.394531 C 57.398438 274.394531 79.40625 297.964844 96.476562 299.59375 C 113.570312 301.21875 132.304688 305.289062 148.203125 314.242188 L 151.855469 315.070312 C 151.855469 315.070312 151.34375 313.429688 149.804688 312.625 C 147.722656 311.511719 131.269531 306.183594 123.34375 280.070312 C 119.292969 266.640625 120.109375 256.871094 118.46875 249.976562 C 118.46875 249.976562 136.390625 269.90625 143.710938 282.511719 C 151.027344 295.128906 151.855469 309.359375 166.910156 317.917969 "/>
<path style=" stroke:none;fill-rule:nonzero;fill:rgb(0.392157%,70.19608%,92.941177%);fill-opacity:1;" d="M 112.976562 290.230469 C 111.628906 291.558594 108.296875 289.429688 107.074219 288.8125 C 105.867188 288.207031 97.058594 284.199219 82.023438 278.847656 C 67.164062 273.570312 39.480469 250.164062 42.121094 210.09375 C 42.121094 210.09375 45.996094 225.136719 57.398438 235.117188 C 68.769531 245.078125 72.886719 246.300781 79.789062 254.429688 C 86.703125 262.570312 102.386719 281.082031 102.992188 280.894531 C 103.609375 280.683594 103.820312 279.664062 102.597656 278.652344 C 101.375 277.640625 97.304688 267.476562 94.636719 263.996094 C 92.007812 260.542969 84.070312 236.730469 95.671875 207.453125 C 95.671875 207.453125 108.085938 228.800781 107.261719 250.371094 C 106.460938 271.929688 105.425781 266.847656 110.71875 284.753906 C 110.71875 284.753906 113.570312 289.636719 112.976562 290.230469 "/>
<path style=" stroke:none;fill-rule:nonzero;fill:rgb(0.392157%,70.19608%,92.941177%);fill-opacity:1;" d="M 78.34375 237.976562 C 77.648438 238.695312 74.480469 234.101562 72.0625 229.835938 C 69.605469 225.558594 52.523438 207.253906 50.269531 203.582031 C 48.046875 199.917969 28.890625 176.71875 43.34375 142.347656 C 43.34375 142.347656 44.777344 141.941406 44.777344 150.082031 C 44.777344 158.210938 52.316406 176.324219 58.414062 184.054688 C 64.507812 191.777344 70.011719 204.195312 71.238281 217.417969 C 71.238281 217.417969 72.0625 219.859375 73.074219 220.058594 C 74.085938 220.265625 74.085938 217.628906 74.085938 217.628906 C 74.085938 217.628906 73.285156 205.417969 73.285156 197.070312 C 73.285156 188.722656 76.9375 174.488281 84.875 166.347656 C 84.875 166.347656 88.539062 162.277344 90.785156 157.40625 C 90.785156 157.40625 92.191406 154.136719 94.242188 152.535156 C 94.242188 152.535156 95.871094 175.917969 87.933594 197.683594 C 80 219.464844 77.355469 223.117188 78.566406 234.917969 C 78.566406 234.917969 78.777344 237.554688 78.347656 237.976562 "/>
<path style=" stroke:none;fill-rule:nonzero;fill:rgb(0.392157%,70.19608%,92.941177%);fill-opacity:1;" d="M 64.90625 173.683594 C 64.105469 173.683594 63.5 170.835938 63.117188 168.589844 C 62.695312 166.347656 60.265625 153.335938 58.601562 150.488281 C 56.992188 147.640625 50.894531 134.625 50.683594 119.359375 C 50.476562 104.105469 57.398438 83.371094 72.886719 66.882812 C 72.886719 66.882812 72.273438 71.765625 68.199219 82.546875 C 64.105469 93.324219 66.558594 103.488281 66.957031 105.324219 C 67.375 107.148438 68.769531 119.757812 68.769531 125.664062 C 68.769531 130.347656 67.570312 146.417969 66.558594 149.683594 C 66.558594 149.683594 66.148438 151.917969 66.957031 151.917969 C 67.78125 151.917969 68.582031 150.082031 68.582031 150.082031 C 68.582031 150.082031 69.421875 137.476562 78.777344 126.082031 C 88.121094 114.683594 105.015625 107.769531 107.679688 102.671875 C 107.679688 102.671875 106.460938 120.589844 86.703125 141.546875 C 69.132812 160.195312 74.296875 150.695312 68.582031 165.941406 C 68.582031 165.941406 66.148438 171.640625 66.148438 172.859375 C 66.148438 174.082031 64.90625 173.683594 64.90625 173.683594 "/>
<path style=" stroke:none;fill-rule:nonzero;fill:rgb(0.392157%,70.19608%,92.941177%);fill-opacity:1;" d="M 75.738281 113.464844 C 75.738281 113.464844 75.308594 111.023438 78.34375 105.535156 C 81.429688 100.046875 78.160156 90.265625 82.234375 76.035156 C 86.285156 61.792969 93.832031 37.382812 122.542969 22.742188 C 122.542969 22.742188 119.691406 25.382812 118.257812 27.40625 C 116.816406 29.441406 109.101562 44.101562 106.855469 54.269531 C 104.621094 64.453125 94.859375 81.523438 91.179688 85.394531 C 87.527344 89.253906 89.15625 89.675781 89.15625 89.675781 C 89.15625 89.675781 90.972656 89.253906 92.8125 86.40625 C 94.636719 83.558594 104.003906 72.972656 114.371094 70.546875 C 124.777344 68.101562 141.253906 63.21875 142.289062 62.195312 C 142.289062 62.195312 124.359375 80.523438 107.867188 89.882812 C 91.390625 99.21875 89.574219 96.371094 79.789062 108.988281 C 79.789062 108.988281 76.542969 113.464844 75.738281 113.464844 "/>
<path style=" stroke:none;fill-rule:nonzero;fill:rgb(0.392157%,70.19608%,92.941177%);fill-opacity:1;" d="M 115.210938 59.148438 C 115.210938 59.148438 115.210938 57.535156 118.257812 54.675781 C 121.320312 51.824219 124.359375 43.292969 129.675781 35.347656 C 134.945312 27.40625 146.953125 6.675781 178.105469 1.789062 C 178.105469 1.789062 168.75 8.707031 167.320312 10.953125 C 165.910156 13.171875 156.742188 25.183594 152.679688 29.242188 C 148.59375 33.3125 136.996094 41.859375 133.109375 43.683594 C 133.109375 43.683594 131.082031 45.324219 131.488281 45.917969 C 131.90625 46.535156 133.933594 45.324219 133.933594 45.324219 C 133.933594 45.324219 144.746094 36.976562 157.765625 36.570312 C 170.773438 36.175781 184.414062 36.765625 186.460938 36.976562 C 186.460938 36.976562 174.242188 45.324219 145.140625 50.605469 C 116.035156 55.894531 121.507812 56.105469 117.046875 58.953125 C 117.046875 58.953125 116.035156 59.753906 115.210938 59.148438 "/>
<path style=" stroke:none;fill-rule:nonzero;fill:rgb(0.392157%,70.19608%,92.941177%);fill-opacity:1;" d="M 167.109375 25.382812 C 167.109375 25.382812 167.734375 23.765625 172.425781 22.328125 C 177.09375 20.90625 176.6875 16.417969 190.929688 8.90625 C 205.195312 1.382812 220.054688 -2.09375 235.101562 4.230469 C 235.101562 4.230469 228.820312 5.035156 227.792969 5.453125 C 226.769531 5.847656 215.980469 8.707031 212.921875 10.324219 C 209.863281 11.964844 194.199219 18.882812 187.894531 20.09375 C 181.585938 21.316406 184.644531 21.730469 184.644531 21.730469 C 184.644531 21.730469 186.066406 22.328125 187.273438 22.328125 C 188.507812 22.328125 202.542969 20.90625 211.699219 24.164062 C 220.859375 27.40625 220.660156 28.636719 224.335938 29.859375 C 227.988281 31.082031 232.273438 31.894531 232.878906 33.3125 C 232.878906 33.3125 223.722656 34.136719 218.195312 34.136719 C 212.710938 34.136719 198.285156 32.71875 191.335938 29.441406 C 184.414062 26.199219 176.476562 24.769531 173.835938 25.382812 C 171.183594 25.988281 167.933594 25.988281 167.109375 25.382812 "/>
<path style=" stroke:none;fill-rule:nonzero;fill:rgb(0.392157%,70.19608%,92.941177%);fill-opacity:1;" d="M 224.933594 18.253906 C 224.933594 18.253906 225.558594 17.453125 229.628906 16.640625 C 233.679688 15.824219 234.71875 13.382812 244.285156 11.347656 C 253.835938 9.3125 268.71875 7.476562 282.34375 16.835938 C 282.34375 16.835938 273.988281 16.640625 272.148438 16.640625 C 270.335938 16.640625 254.441406 19.476562 250.796875 19.476562 C 247.121094 19.476562 239.800781 17.859375 238.765625 19.078125 C 237.777344 20.289062 245.503906 21.929688 246.726562 22.324219 C 247.921875 22.742188 253.441406 23.152344 260.363281 29.859375 C 267.273438 36.566406 272.148438 40.230469 272.976562 40.640625 C 272.976562 40.640625 252.617188 35.964844 247.527344 33.117188 C 242.445312 30.265625 233.679688 21.519531 232.273438 20.90625 C 230.839844 20.289062 224.933594 18.253906 224.933594 18.253906 "/>
<path style=" stroke:none;fill-rule:nonzero;fill:rgb(0.392157%,70.19608%,92.941177%);fill-opacity:1;" d="M 271.96875 26.605469 C 271.96875 26.605469 284.800781 26.195312 294.167969 32.105469 C 303.511719 37.988281 311.050781 45.71875 311.867188 50.40625 C 311.867188 50.40625 306.570312 45.917969 303.117188 44.917969 C 299.648438 43.894531 289.859375 38.40625 287.839844 37.1875 C 285.800781 35.964844 273.988281 28.429688 271.96875 26.605469 "/>
<path style=" stroke:none;fill-rule:nonzero;fill:rgb(0.392157%,70.19608%,92.941177%);fill-opacity:1;" d="M 332.230469 320.148438 C 332.230469 320.148438 334.042969 318.3125 340.144531 313.023438 C 346.265625 307.730469 347.871094 300.007812 354.621094 287.996094 C 361.335938 276 367.011719 267.652344 380.660156 255.453125 C 380.660156 255.453125 378.242188 264.605469 378.019531 267.476562 C 377.835938 270.324219 375.574219 286.160156 367.851562 295.335938 C 360.109375 304.488281 359.703125 306.535156 350.734375 312.011719 C 350.734375 312.011719 347.277344 314.441406 347.488281 315.265625 C 347.683594 316.082031 353.605469 315.070312 353.605469 315.070312 C 353.605469 315.070312 360.109375 312.625 362.136719 311.40625 C 364.160156 310.175781 373.34375 305.5 377.007812 304.078125 C 380.660156 302.652344 383.722656 301.21875 391.867188 298.789062 C 400.011719 296.347656 429.511719 288.8125 441.125 270.089844 C 441.125 270.089844 437.679688 281.082031 433.398438 286.160156 C 429.113281 291.265625 404.914062 323.207031 371.292969 322.582031 C 371.292969 322.582031 358.0625 321.566406 351.140625 320.347656 C 344.238281 319.136719 341.773438 319.136719 340.757812 319.335938 C 339.746094 319.519531 333.21875 320.742188 332.230469 320.148438 "/>
<path style=" stroke:none;fill-rule:nonzero;fill:rgb(0.392157%,70.19608%,92.941177%);fill-opacity:1;" d="M 407.34375 206.011719 C 407.34375 206.011719 394.695312 225.765625 391.867188 254.230469 C 389.019531 282.71875 393.890625 274.1875 389.222656 286.789062 C 389.222656 286.789062 387.582031 290.023438 388.210938 290.230469 C 388.804688 290.441406 391.261719 289.007812 400.222656 283.546875 C 409.171875 278.023438 417.910156 279.664062 437.039062 261.359375 C 456.191406 243.054688 460.070312 206.636719 460.453125 203.582031 C 460.453125 203.582031 457.601562 206.429688 456.191406 211.3125 C 454.773438 216.199219 451.714844 220.058594 451.109375 220.6875 C 450.492188 221.277344 429.722656 244.066406 427.277344 246.09375 C 424.832031 248.140625 412.625 262.988281 409.996094 267.242188 C 407.34375 271.519531 399.59375 279.265625 398.175781 278.652344 C 398.175781 278.652344 398.382812 276.816406 399 275.40625 C 399.59375 273.976562 405.308594 266.230469 407.742188 257.289062 C 410.183594 248.335938 410.800781 242.851562 411.007812 237.148438 C 411.195312 231.441406 407.519531 210.5 407.34375 206.011719 "/>
<path style=" stroke:none;fill-rule:nonzero;fill:rgb(0.392157%,70.19608%,92.941177%);fill-opacity:1;" d="M 424.449219 233.488281 C 424.449219 233.488281 423.167969 230.535156 424.242188 228.40625 C 424.832031 227.183594 425.460938 217.417969 421.796875 209.488281 C 418.140625 201.558594 410.183594 179.566406 410.796875 164.929688 C 411.402344 150.277344 413.035156 148.253906 413.035156 148.253906 C 413.035156 148.253906 417.105469 160.257812 418.328125 162.277344 C 419.5625 164.324219 431.765625 185.894531 430.753906 197.683594 C 429.722656 209.488281 429.113281 213.140625 429.722656 213.347656 C 430.359375 213.554688 431.765625 211.917969 431.953125 210.5 C 432.175781 209.066406 434.199219 200.929688 438.066406 191.371094 C 441.9375 181.824219 457.601562 160.660156 461.082031 146.628906 C 461.082031 146.628906 466.164062 171.046875 452.515625 193.8125 C 438.890625 216.613281 437.445312 211.511719 431.765625 221.894531 C 426.078125 232.265625 425.253906 233.488281 424.449219 233.488281 "/>
<path style=" stroke:none;fill-rule:nonzero;fill:rgb(0.392157%,70.19608%,92.941177%);fill-opacity:1;" d="M 436.855469 169 C 435.84375 168.789062 436.433594 159.429688 433.988281 156.382812 C 431.5625 153.335938 410.589844 128.523438 406.132812 103.695312 C 406.132812 103.695312 419.339844 117.128906 421.585938 118.546875 C 423.820312 119.976562 432.78125 128.929688 435.421875 136.664062 C 438.066406 144.382812 437.445312 150.90625 438.480469 151.09375 C 439.519531 151.289062 439.519531 142.558594 439.519531 142.558594 C 439.519531 142.558594 439.707031 125.476562 441.125 117.335938 C 442.554688 109.195312 446.234375 95.570312 444.605469 88.640625 C 444.605469 88.640625 452.515625 101.257812 452.109375 119.175781 C 451.714844 137.058594 444.183594 151.289062 443.171875 153.335938 C 442.136719 155.382812 439.308594 164.125 439.308594 165.941406 C 439.308594 167.777344 436.855469 169 436.855469 169 "/>
<path style=" stroke:none;fill-rule:nonzero;fill:rgb(0.392157%,70.19608%,92.941177%);fill-opacity:1;" d="M 412.023438 41.652344 C 412.023438 41.652344 439.519531 57.929688 435.214844 112.453125 C 435.214844 112.453125 435.214844 114.882812 433.605469 112.253906 C 431.953125 109.605469 426.078125 102.066406 423.414062 100.429688 C 420.761719 98.824219 396.347656 83.972656 385.957031 61.1875 C 385.957031 61.1875 387.582031 60.765625 390.03125 63.007812 C 392.484375 65.253906 400.011719 69.113281 401.234375 69.730469 C 402.457031 70.335938 411.007812 72.589844 417.316406 79.484375 C 423.621094 86.40625 425.867188 91.488281 427.695312 95.570312 C 427.695312 95.570312 429.511719 96.988281 428.289062 92.917969 C 427.09375 88.859375 426.882812 86.207031 423.625 81.117188 C 420.355469 76.03125 417.527344 66.882812 417.105469 60.582031 C 416.710938 54.265625 414.875 44.917969 412.023438 41.652344 "/>
<path style=" stroke:none;fill-rule:nonzero;fill:rgb(0.392157%,70.19608%,92.941177%);fill-opacity:1;" d="M 407.34375 60.765625 C 407.34375 60.765625 407.949219 57.117188 405.308594 52.035156 C 402.652344 46.941406 404.726562 41.289062 396.347656 27.828125 C 391.65625 20.289062 375.367188 14.394531 375.367188 14.394531 C 375.367188 14.394531 380.058594 20.90625 383.117188 24.558594 C 386.167969 28.230469 387.179688 30.871094 388.210938 32.71875 C 389.222656 34.535156 394.855469 39.976562 396.953125 43.082031 C 397.359375 43.683594 398.175781 45.324219 398.175781 46.335938 C 398.175781 47.347656 395.9375 45.71875 395.324219 45.113281 C 394.695312 44.5 384.757812 36.976562 378.425781 35.753906 C 372.117188 34.535156 360.109375 33.3125 356.84375 31.6875 C 356.84375 31.6875 371.105469 44.5 386.574219 48.371094 C 402.0625 52.242188 407.34375 60.765625 407.34375 60.765625 "/>
<path style=" stroke:none;fill-rule:nonzero;fill:rgb(0.392157%,70.19608%,92.941177%);fill-opacity:1;" d="M 375.15625 27.207031 C 375.15625 27.207031 360.914062 7.894531 335.464844 8.300781 C 335.464844 8.300781 336.894531 9.71875 339.746094 10.324219 C 342.585938 10.941406 347.683594 16.019531 350.339844 17.660156 C 352.976562 19.289062 358.484375 23.335938 375.15625 27.207031 "/>
<path style=" stroke:none;fill-rule:nonzero;fill:rgb(0.392157%,70.19608%,92.941177%);fill-opacity:1;" d="M 143.382812 397.011719 C 131.96875 398.253906 129.453125 400.582031 129.453125 416.882812 L 129.453125 457.441406 C 129.453125 469.847656 129.453125 499.058594 91.097656 499.058594 C 54.386719 499.058594 54.386719 468.777344 54.386719 459.464844 L 54.386719 411 C 54.386719 399.488281 52.316406 397.800781 41.050781 397.011719 L 41.050781 394.058594 L 82.953125 394.058594 L 82.953125 397.011719 C 71.261719 397.941406 69.480469 399.964844 69.480469 411 L 69.480469 460.699219 C 69.480469 470.640625 69.480469 492.222656 95.230469 492.222656 C 106.796875 492.222656 115.246094 487.265625 119.527344 479.976562 C 121.46875 476.546875 122.9375 471.417969 122.9375 458.839844 L 122.9375 416.882812 C 122.9375 400.277344 119.375 397.625 109.019531 397.011719 L 109.019531 394.058594 L 143.382812 394.058594 Z M 143.382812 397.011719 "/>
<path style=" stroke:none;fill-rule:nonzero;fill:rgb(0.392157%,70.19608%,92.941177%);fill-opacity:1;" d="M 263.925781 397.011719 C 254.582031 398.105469 249.84375 398.730469 249.84375 416.90625 L 249.84375 498.578125 L 247.339844 498.578125 L 182.179688 413.476562 L 181.898438 413.476562 L 181.898438 474.070312 C 181.898438 490.058594 184.996094 493.488281 195.804688 493.941406 L 195.804688 496.894531 L 161.035156 496.894531 L 161.035156 493.941406 C 172.265625 493.171875 175.359375 490.835938 175.359375 474.070312 L 175.378906 405.566406 C 169.28125 397.800781 166.917969 397.011719 161.03125 397.011719 L 161.03125 394.082031 L 186.339844 394.082031 L 243.042969 468.777344 L 243.34375 468.777344 L 243.34375 416.90625 C 243.34375 399.03125 239.191406 397.800781 229.128906 397.011719 L 229.128906 394.082031 L 263.917969 394.082031 L 263.917969 397.011719 Z M 263.925781 397.011719 "/>
<path style=" stroke:none;fill-rule:nonzero;fill:rgb(0.392157%,70.19608%,92.941177%);fill-opacity:1;" d="M 360.542969 496.894531 L 280.585938 496.894531 L 280.585938 493.941406 C 290.046875 493.3125 293.46875 491.929688 293.46875 479.976562 L 293.46875 411 C 293.46875 398.730469 289.90625 397.800781 280.585938 397.011719 L 280.585938 394.082031 L 359.207031 394.082031 L 359.632812 416.289062 L 355.957031 416.289062 C 353.722656 402.464844 349.882812 399.964844 333.4375 399.964844 L 313.460938 399.964844 C 310.332031 399.964844 308.550781 399.964844 308.550781 405.253906 L 308.550781 439.734375 L 331.378906 439.734375 C 344.542969 439.734375 346.019531 436.007812 347.671875 424.984375 L 351.058594 424.984375 L 351.058594 461.011719 L 347.671875 461.011719 C 345.871094 448.59375 343.65625 446.429688 331.378906 446.253906 L 308.550781 445.953125 L 308.550781 484.453125 C 308.550781 490.835938 308.550781 491 330.636719 491 C 349.136719 491 356.539062 486.335938 363.066406 470.640625 L 367.210938 470.640625 Z M 360.542969 496.894531 "/>
<path style=" stroke:none;fill-rule:nonzero;fill:rgb(0.392157%,70.19608%,92.941177%);fill-opacity:1;" d="M 381.964844 394.082031 L 421.039062 394.082031 C 441.484375 394.082031 459.835938 402.300781 459.835938 422.019531 C 459.835938 434.140625 453.308594 440.519531 450.804688 443 C 444.441406 449.359375 434.945312 452.171875 419.398438 452.171875 C 415.847656 452.171875 413.035156 452 409.472656 451.699219 L 409.472656 479.976562 C 409.472656 491.289062 412.023438 493.628906 423.390625 493.941406 L 423.390625 496.894531 L 381.964844 496.894531 L 381.964844 493.941406 C 394.390625 493.011719 394.390625 489.429688 394.390625 478.257812 L 394.390625 411 C 394.390625 399.964844 392.75 398.105469 381.964844 397.011719 Z M 409.472656 445.5 C 412.289062 445.777344 415.242188 445.953125 418.363281 445.953125 C 423.84375 445.953125 443.695312 445.953125 443.695312 422.335938 C 443.695312 400.128906 422.066406 399.824219 415.558594 399.824219 C 411.113281 399.824219 409.472656 399.964844 409.472656 405.117188 Z M 409.472656 445.5 "/>
</g>
</svg>
